<?xml version="1.0" encoding="utf-8"?>
<!DOCTYPE svg PUBLIC "-//W3C//DTD SVG 1.0//EN" "http://www.w3.org/TR/2001/REC-SVG-20010904/DTD/svg10.dtd">
<svg version="1.0" xmlns="http://www.w3.org/2000/svg" width="579px" height="530px" viewBox="0 0 579 530" preserveAspectRatio="xMidYMid meet">
 <g fill="#ffffff">
  <path d="M0 265 l0 -265 289.5 0 289.5 0 0 265 0 265 -289.5 0 -289.5 0 0 -265z m306.4 255 c3.3 -1.1 10 -4.6 15 -7.9 30.1 -19.3 65.8 -35.3 102.6 -46 29.8 -8.6 64.6 -15.1 91.7 -17.1 27.8 -2.1 32.1 -3.3 37 -10.2 l2.8 -4.1 0.3 -149.7 0.2 -149.6 -2.2 -2.2 c-1.7 -1.5 -5.4 -2.6 -14.8 -4.2 -6.9 -1.2 -13.1 -2.7 -13.9 -3.5 -2.2 -2.2 -9.1 -20.7 -9.1 -24.5 0 -2.7 1.6 -5.7 7 -13.4 3.9 -5.4 7 -10.4 7 -11 0 -0.6 -5.8 -6.9 -12.9 -14 -9.1 -9.1 -13.3 -12.6 -14.2 -12 -0.8 0.4 -4.8 3.3 -8.9 6.4 -9.3 7.1 -11.1 8 -15 8 -3.1 0 -21.3 -7.2 -23.7 -9.5 -0.7 -0.6 -2.2 -5.8 -3.2 -11.5 -3.6 -19.7 -2.9 -19.1 -24.7 -18.8 l-16.8 0.3 -2.2 3.2 c-1.5 2.2 -2.7 6.8 -3.9 14.7 -0.9 6.3 -2.2 11.9 -2.9 12.4 -0.6 0.5 -5.3 2.8 -10.5 5.1 -13.4 5.9 -14.8 5.7 -27 -3.4 -5.6 -4.1 -10.7 -7.4 -11.4 -7.4 -0.6 0.1 -7 6.2 -14.1 13.5 l-12.9 13.3 3.8 5.8 c2.1 3.2 5.3 7.7 7.1 10 2.7 3.3 3.4 5 3.4 8.5 0 4.3 -6.1 22.1 -8.4 24.5 -0.6 0.6 -6.5 2 -13.1 3.2 -14.3 2.4 -14.9 2.6 -16.9 5.6 -1.3 1.9 -1.6 5.6 -1.6 17.9 l0 15.4 2.9 2.4 c2.3 2 5.1 2.8 14.5 4.1 6.4 0.9 12.5 2.1 13.5 2.6 2.4 1.3 8.3 18.1 8.8 25.1 l0.4 5.5 -7 8.5 c-3.9 4.7 -7.1 9.2 -7.1 10.1 0 1.9 25.2 26.9 27.2 26.9 0.7 0 5.5 -3.1 10.7 -7 8.5 -6.4 9.7 -7 14.1 -7 3 0 8.5 1.3 14.6 3.6 5.4 1.9 10 3.6 10.1 3.8 0.1 0.1 1.2 6 2.3 13.1 2.3 13.8 3 15.9 6 17.5 1 0.5 8.7 1 17.2 1 20.2 0 19.9 0.2 22.9 -19.8 0.7 -4.6 1.7 -8.9 2.3 -9.7 1.9 -2.3 21.5 -9.5 26.1 -9.5 3.7 0 5.6 1 14.1 7 5.4 3.9 10.1 7 10.4 7 0.4 0 5.9 -4.7 12.2 -10.5 10.3 -9.3 12 -10.5 15.3 -10.5 l3.6 0 -0.1 86.8 c-0.1 47.7 -0.4 87.7 -0.7 89 -0.5 2 -1.1 2.2 -6.7 2.2 -9 0.1 -32.6 3.4 -53.1 7.5 -51.9 10.4 -109.2 30.3 -154.6 53.6 -6.3 3.2 -10.8 4.9 -13.2 4.9 l-3.7 0 0 -36.8 0 -36.8 -9.2 2.3 c-5.1 1.2 -10.3 2.3 -11.5 2.3 l-2.3 0 0 34.5 0 34.5 -3.5 0 c-2.6 0 -6.3 -1.7 -13.3 -5.9 -35 -21.1 -81.2 -38.1 -141.7 -51.9 -18.4 -4.3 -45.7 -8.2 -56.5 -8.2 l-6.7 0 -0.7 -47.7 c-0.4 -26.3 -0.4 -92.2 0 -146.5 l0.7 -98.8 7.6 0 c18.5 0 59.5 6.6 97.1 15.6 37.1 8.9 60.1 17.1 88.8 31.5 l17.2 8.7 0 -12.9 0 -12.9 -7.9 -3.9 c-18.1 -9.1 -47.2 -20.6 -64.9 -25.5 -49.3 -13.9 -100.5 -23.4 -134.6 -25.2 -17.4 -0.9 -23.9 1.5 -28.6 10.6 -1.8 3.5 -1.9 9 -2.1 166.6 -0.2 177.3 -0.5 166.8 5.2 172.1 4.7 4.3 9.7 5.6 25.4 6.4 33.9 1.8 84.4 12.3 120.5 25.1 20 7 43.2 16.4 53 21.3 9.4 4.7 13 7 28.6 17.8 7.6 5.3 14.9 8.8 20.4 10 4.6 1 16.5 -0.2 22.4 -2.3z m-74.1 -125.9 c1.9 -2.3 2.7 -5 3.7 -11.8 0.6 -4.8 1.2 -9.2 1.4 -9.7 0.3 -1.5 17.9 -8.6 21.1 -8.6 3.5 0.1 5 0.9 12.8 6.9 4.5 3.4 6.2 4.2 7.7 3.5 1 -0.5 6.6 -5.5 12.4 -11.1 12.1 -11.7 11.9 -10.7 3.1 -21.3 -3.4 -4.2 -4.5 -6.3 -4.5 -9 0 -3.6 5.3 -18.6 7.3 -20.7 0.7 -0.7 5.9 -1.9 11.7 -2.7 14 -2 14 -2 14 -18 0 -16.7 -0.5 -17.3 -17.5 -19.6 -4.4 -0.6 -8.2 -1.4 -8.5 -1.8 -2 -2.3 -7 -16.8 -7 -20.1 0 -3.3 0.8 -5 4.8 -9.8 8.3 -10 8.6 -8.4 -4.4 -21.4 -8.5 -8.5 -11.7 -11.1 -12.7 -10.4 -0.8 0.6 -4.5 3.1 -8.5 5.8 -9.1 6.1 -11.5 6.1 -23.1 0.3 l-8.8 -4.5 -1.6 -10.2 c-2.2 -14.1 -2.1 -14 -18.3 -14.2 -18 -0.3 -18.7 0.2 -21.4 17.6 l-1.3 7.7 -8.5 4 c-11.7 5.5 -14.6 5.4 -23.8 -1 -4 -2.7 -7.8 -5 -8.6 -5 -2.2 0 -21.8 20.3 -21.8 22.5 0 1.1 2.5 4.9 5.5 8.5 6.9 8 7.1 11.2 2.1 22.7 l-3.4 7.8 -10.3 1.7 c-11.7 2 -14.4 3.4 -15.3 7.9 -1 5.2 -0.7 21.6 0.5 24.3 1.4 3 4.5 4.3 12.4 5.1 12.6 1.4 12.8 1.5 16.3 10.6 4.6 11.7 4.4 14.5 -2.3 24 -3 4.3 -5.5 8.2 -5.5 8.6 0 1.1 21.3 22.3 22.4 22.3 0.4 0 4.4 -2.5 8.7 -5.5 9.9 -6.9 12.3 -7.1 24.3 -1.5 4.7 2.3 8.6 4.4 8.6 4.8 0 2.3 3 18.3 3.6 19.4 2.6 4.6 3.2 4.8 17 4.8 l13.2 0 2.5 -2.9z"/>
  <path d="M522.3 213.1 c-4.9 -5.4 -5.3 -6.1 -5.3 -10.8 0 -3.1 1.3 -8.8 3.4 -14.9 l3.4 -9.9 5.4 0 5.3 0 0.3 20.8 0.2 20.7 -3.7 -0.1 c-3.3 -0.1 -4.5 -0.9 -9 -5.8z"/>
  <path d="M415 205.5 c-15.7 -3.5 -31.1 -15.1 -37 -27.7 -4.5 -9.5 -6.3 -19.5 -5.6 -29.9 1.3 -17.5 5.4 -26.6 16.7 -37.4 11.7 -11 23.4 -15 41.4 -14.3 16.7 0.8 28.1 5.4 38.6 15.8 11.6 11.4 15.4 22.5 14.6 42 -0.4 9.2 -1 12.9 -3.1 18.5 -5.4 14.2 -17.3 26.3 -31.1 31.5 -7.8 2.9 -24.9 3.7 -34.5 1.5z"/>
  <path d="M203.3 336.5 c-21.2 -5.7 -33.2 -22.3 -33.3 -45.8 -0.1 -24.6 17.4 -44.6 40.7 -46.4 27.6 -2.1 49.2 13.7 52.3 38.2 3.3 25.8 -8.9 46.7 -31.1 53.6 -7.3 2.3 -20.9 2.4 -28.6 0.4z"/>
 </g>
 <g fill="#ff7352">
  <path d="M281 525.3 c-5.6 -1.2 -12.8 -4.7 -20.4 -10 -15.6 -10.8 -19.2 -13.1 -28.6 -17.8 -9.8 -4.9 -33 -14.3 -53 -21.3 -36.1 -12.8 -86.6 -23.3 -120.5 -25.1 -16.2 -0.9 -20.8 -2.1 -25.8 -6.9 -5.8 -5.5 -5.5 2.7 -5 -176.2 0.4 -158.5 0.5 -164.5 2.3 -168.1 1.1 -2 3.3 -4.8 5 -6.2 5 -4.2 9.8 -5 26.5 -4.4 34.9 1.4 86.1 10.8 137.7 25.3 17.7 4.9 46.8 16.4 64.9 25.5 l7.9 3.9 0 18.1 0 18.1 -2.6 -1.7 c-19 -12.4 -51.9 -26.9 -79.4 -34.9 -41.3 -12 -102.1 -23.5 -124.2 -23.6 l-4.8 0 -0.2 58.8 c-0.2 81.5 -0.2 165.3 0 199.5 l0.2 28.7 6.8 0 c11 0 38.2 3.9 56.7 8.2 60.5 13.8 106.7 30.8 141.7 51.9 5.4 3.3 10 5.9 10.3 5.9 0.3 0 0.5 -15.4 0.5 -34.3 l0 -34.3 7.3 -1.3 c3.9 -0.7 10.5 -2.3 14.5 -3.6 l7.2 -2.3 0 37.9 c0 20.8 0.3 37.9 0.7 37.9 0.4 0 5 -2.2 10.2 -4.9 45.4 -23.3 102.7 -43.2 154.6 -53.6 20.5 -4.2 44.1 -7.4 53.3 -7.5 4.2 0 6.2 -0.4 6.3 -1.2 0.4 -9.7 0.7 -170.8 0.3 -170.8 -0.4 0 -5.3 4.2 -11 9.4 -12.4 11.4 -14.7 13 -17.6 12.3 -1.3 -0.4 -6.7 -3.8 -12.2 -7.7 -5.4 -3.8 -10.4 -7 -11.1 -7 -2.3 0 -22 8.2 -23.1 9.5 -0.6 0.8 -1.6 5.1 -2.3 9.7 -3 20.4 -2.2 19.8 -25.9 19.8 -10.6 0 -19.1 -0.4 -20.2 -1 -3 -1.6 -3.7 -3.7 -6 -17.5 -1.1 -7.1 -2.2 -13 -2.3 -13.1 -0.8 -0.8 -20.2 -7.4 -21.7 -7.4 -1 0 -5.8 3 -10.6 6.6 -14.8 11.2 -14.7 11.2 -31.9 -5.7 -12.3 -12.1 -13 -12.9 -13 -16.7 0 -3.4 1 -5.1 7.3 -12.8 5.7 -6.9 7.2 -9.5 6.9 -11.4 -1 -5.8 -7.1 -21.2 -8.8 -22.1 -1 -0.5 -7.1 -1.7 -13.5 -2.6 -9.4 -1.3 -12.2 -2.1 -14.5 -4.1 l-2.9 -2.4 0 -18.4 c0 -15.1 0.3 -18.9 1.6 -20.9 2 -3 2.6 -3.2 16.9 -5.6 6.6 -1.2 12.5 -2.6 13.1 -3.2 1.3 -1.3 8.4 -19.5 8.4 -21.4 0 -0.7 -2.2 -4.1 -5 -7.7 -7.8 -10.4 -10.1 -14.8 -9.2 -17.8 0.4 -1.5 6.7 -8.7 14.2 -16.3 16.2 -16.4 15 -16.2 30 -5.1 5.6 4.2 10.5 7.6 10.9 7.6 1.2 0 19.3 -8 20.7 -9.2 0.7 -0.5 2 -6.1 2.9 -12.4 1.2 -7.9 2.4 -12.5 3.9 -14.7 l2.2 -3.2 19.8 -0.3 c25.3 -0.3 24 -1.2 27.7 18.8 1 5.7 2.5 10.9 3.2 11.5 0.6 0.7 5.6 3.1 10.9 5.4 11.3 4.8 10 5 21.8 -3.9 8.6 -6.5 11.1 -8 13.7 -8 1.1 0 7.8 5.9 15.6 13.8 10.6 10.8 13.7 14.5 13.7 16.5 0 2.3 -5.4 11.2 -13.1 21.7 l-2.1 2.8 3.8 9.9 c2 5.4 4.5 10.6 5.3 11.5 1.1 1.1 5.8 2.4 14.1 3.8 9.4 1.6 13.1 2.7 14.8 4.2 l2.2 2.2 -0.2 152.6 -0.3 152.7 -2.8 4.1 c-4.9 6.9 -9.2 8.1 -37 10.2 -27.1 2 -61.9 8.5 -91.7 17.1 -36.8 10.7 -72.5 26.7 -102.6 46 -12.1 7.9 -18.4 10 -30.9 10.4 -5.5 0.2 -11.1 0.1 -12.5 -0.2z m250.7 -327 l-0.2 -17.8 -2.3 0 c-2.1 0 -2.8 1.2 -5.8 9.9 -1.9 5.5 -3.4 10.8 -3.4 11.9 0 1.8 9.5 13.3 11.2 13.6 0.4 0 0.6 -7.9 0.5 -17.6z m-85.2 2.6 c19.2 -7.1 32.9 -25.8 34.2 -46.9 1 -15.9 -3.6 -28.2 -14.6 -39 -9.6 -9.5 -21.6 -14.8 -35.6 -15.7 -14.3 -1 -27.2 3.8 -38 13.9 -10.7 10 -14.6 17.5 -16.5 32.1 -1.4 9.9 0.3 19.4 5 29.5 5.9 12.6 21.3 24.2 37 27.7 8.6 2 20.8 1.3 28.5 -1.6z"/>
  <path d="M201.9 400 c-3.8 -0.9 -5.9 -5.1 -7.4 -14.5 -0.8 -5 -1.5 -9.3 -1.5 -9.7 0 -0.7 -16.6 -8.8 -18.1 -8.8 -0.5 0 -4.8 2.7 -9.6 6 -4.9 3.4 -9.7 6 -11.1 6 -3.6 0 -26.2 -22.3 -26.2 -25.9 0 -1.5 2.5 -6.2 6 -11.3 3.3 -4.7 6 -9.1 6 -9.7 0 -0.5 -1.4 -4.6 -3.2 -9 -3.5 -9.1 -3.7 -9.2 -16.3 -10.6 -7.9 -0.8 -11 -2.1 -12.4 -5.1 -1.2 -2.7 -1.5 -24.9 -0.5 -30.3 0.9 -4.5 3.6 -5.9 15.3 -7.9 l10.3 -1.7 3.4 -7.8 c1.9 -4.3 3.4 -8.3 3.4 -9 0 -0.7 -2.3 -4 -5.1 -7.2 -9.9 -11.7 -9.7 -12.9 4.4 -27.2 10.9 -11.1 11.3 -11.5 14.9 -11 2.2 0.3 6.6 2.5 11.1 5.6 4 2.8 7.8 5.1 8.4 5.1 0.6 0 4.8 -1.8 9.5 -4 l8.5 -4 1.3 -7.7 c2.8 -17.7 2.9 -17.8 24.2 -17.8 19.6 0 19.2 -0.3 21.5 14.4 l1.6 10.2 9 4.5 9 4.6 3.4 -1.9 c1.9 -1 5.7 -3.6 8.6 -5.7 8.4 -6.4 9.9 -5.9 23.4 7.6 14.3 14.2 14.4 14.8 4.1 27.1 -2.6 3.2 -4.8 6.2 -4.8 6.8 0 1.1 6.1 16.1 7 17.1 0.3 0.4 4.1 1.2 8.5 1.8 4.4 0.6 9.5 1.6 11.2 2.1 5.8 1.8 6.3 3.6 6.3 20.5 0 19.4 0.3 19 -14 21 -5.8 0.8 -11 2 -11.7 2.7 -0.6 0.7 -2.6 4.9 -4.3 9.5 -2.7 7.1 -3 8.5 -1.8 10 0.7 0.9 2.9 3.7 4.8 6.2 8.9 11.3 8.7 12.4 -4.6 25.3 -15.5 15 -16.1 15.2 -25.9 7.7 -10 -7.6 -9 -7.4 -19.1 -3.1 -4.8 2.1 -8.9 4.2 -9 4.7 -0.2 0.5 -0.8 4.9 -1.4 9.8 -1 7.2 -1.7 9.4 -3.9 11.7 -2.6 2.8 -2.6 2.8 -16.8 3.1 -7.8 0.2 -15.2 0.1 -16.4 -0.2z m27 -66.9 c8.4 -2.6 14.1 -6.2 19.6 -12.3 16.1 -17.8 15.5 -45.5 -1.2 -60.8 -13.7 -12.5 -33.1 -16.1 -48.2 -9 -17.4 8.3 -28.1 27.5 -25.3 45.5 0.6 3.9 2.1 9.7 3.3 12.9 7.1 18.5 31.9 29.9 51.8 23.7z"/>
 </g>
</svg>